<?xml version="1.0" encoding="UTF-8"?>
<!DOCTYPE svg PUBLIC "-//W3C//DTD SVG 1.1//EN" "http://www.w3.org/Graphics/SVG/1.1/DTD/svg11.dtd">
<svg xmlns="http://www.w3.org/2000/svg" version="1.1" width="217px" height="232px" style="shape-rendering:geometricPrecision; text-rendering:geometricPrecision; image-rendering:optimizeQuality; fill-rule:evenodd; clip-rule:evenodd" xmlns:xlink="http://www.w3.org/1999/xlink">
<g><path style="opacity:1" fill="#f1f1f1" d="M -0.5,-0.5 C 3.83333,-0.5 8.16667,-0.5 12.5,-0.5C 6.26682,1.39833 1.93349,5.39833 -0.5,11.5C -0.5,7.5 -0.5,3.5 -0.5,-0.5 Z"/></g>
<g><path style="opacity:1" fill="#020202" d="M 12.5,-0.5 C 73.8333,-0.5 135.167,-0.5 196.5,-0.5C 202.365,1.02767 206.365,4.69434 208.5,10.5C 208.832,55.6698 208.499,100.67 207.5,145.5C 202.885,142.36 197.885,140.026 192.5,138.5C 192.83,97.5942 192.497,56.7609 191.5,16C 133.5,15.3333 75.5,15.3333 17.5,16C 16.944,16.3826 16.6107,16.8826 16.5,17.5C 15.1692,61.0019 15.1692,104.669 16.5,148.5C 17.1067,148.376 17.44,148.043 17.5,147.5C 36.9643,129.204 56.2977,110.704 75.5,92C 78.1667,90 80.8333,90 83.5,92C 101.208,112.039 118.541,132.373 135.5,153C 121.36,168.532 117.36,186.365 123.5,206.5C 86.6704,207.498 49.6704,207.832 12.5,207.5C 9.5335,207.011 6.86683,205.845 4.5,204C 2.68589,201.521 1.01922,199.021 -0.5,196.5C -0.5,134.833 -0.5,73.1667 -0.5,11.5C 1.93349,5.39833 6.26682,1.39833 12.5,-0.5 Z"/></g>
<g><path style="opacity:1" fill="#fdfdfd" d="M 196.5,-0.5 C 203.167,-0.5 209.833,-0.5 216.5,-0.5C 216.5,61.1667 216.5,122.833 216.5,184.5C 207.92,154.793 188.586,143.959 158.5,152C 138.755,162.325 130.921,178.492 135,200.5C 140.307,217.312 151.474,227.645 168.5,231.5C 112.167,231.5 55.8333,231.5 -0.5,231.5C -0.5,219.833 -0.5,208.167 -0.5,196.5C 1.01922,199.021 2.68589,201.521 4.5,204C 6.86683,205.845 9.5335,207.011 12.5,207.5C 49.6689,208.83 87.0022,208.83 124.5,207.5C 124.376,206.893 124.043,206.56 123.5,206.5C 117.36,186.365 121.36,168.532 135.5,153C 118.541,132.373 101.208,112.039 83.5,92C 80.8333,90 78.1667,90 75.5,92C 56.2977,110.704 36.9643,129.204 17.5,147.5C 16.5013,104.337 16.168,61.0032 16.5,17.5C 16.6107,16.8826 16.944,16.3826 17.5,16C 75.5,15.3333 133.5,15.3333 191.5,16C 192.497,56.7609 192.83,97.5942 192.5,138.5C 197.885,140.026 202.885,142.36 207.5,145.5C 207.56,146.043 207.893,146.376 208.5,146.5C 209.831,101.002 209.831,55.6685 208.5,10.5C 206.365,4.69434 202.365,1.02767 196.5,-0.5 Z"/></g>
<g><path style="opacity:1" fill="#515151" d="M 208.5,10.5 C 209.831,55.6685 209.831,101.002 208.5,146.5C 207.893,146.376 207.56,146.043 207.5,145.5C 208.499,100.67 208.832,55.6698 208.5,10.5 Z"/></g>
<g><path style="opacity:1" fill="#a0a0a0" d="M 16.5,17.5 C 16.168,61.0032 16.5013,104.337 17.5,147.5C 17.44,148.043 17.1067,148.376 16.5,148.5C 15.1692,104.669 15.1692,61.0019 16.5,17.5 Z"/></g>
<g><path style="opacity:1" fill="#020202" d="M 147.5,33.5 C 168.647,32.8064 177.48,42.8064 174,63.5C 168.363,74.2333 159.53,78.4 147.5,76C 132.706,68.6184 128.873,57.4518 136,42.5C 139.161,38.4905 142.994,35.4905 147.5,33.5 Z"/></g>
<g><path style="opacity:1" fill="#020202" d="M 149.5,100.5 C 151.655,100.372 153.655,100.872 155.5,102C 166.27,113.526 177.27,124.859 188.5,136C 170.154,132.503 153.821,136.669 139.5,148.5C 140.87,133.925 143.036,119.258 146,104.5C 146.69,102.65 147.856,101.316 149.5,100.5 Z"/></g>
<g><path style="opacity:1" fill="#040404" d="M 216.5,184.5 C 216.5,187.833 216.5,191.167 216.5,194.5C 212.249,216.085 199.249,228.418 177.5,231.5C 174.5,231.5 171.5,231.5 168.5,231.5C 151.474,227.645 140.307,217.312 135,200.5C 130.921,178.492 138.755,162.325 158.5,152C 188.586,143.959 207.92,154.793 216.5,184.5 Z"/></g>
<g><path style="opacity:1" fill="#f9f9f9" d="M 170.5,161.5 C 195.48,162.975 205.646,175.975 201,200.5C 200.417,202.002 199.584,203.335 198.5,204.5C 186.444,192.066 174.611,179.399 163,166.5C 162.312,165.668 162.479,165.002 163.5,164.5C 165.885,163.339 168.219,162.339 170.5,161.5 Z"/></g>
<g><path style="opacity:1" fill="#f8f8f8" d="M 150.5,175.5 C 162.751,187.921 174.917,200.587 187,213.5C 187.688,214.332 187.521,214.998 186.5,215.5C 168.446,221.724 155.612,216.057 148,198.5C 145.538,190.447 146.372,182.781 150.5,175.5 Z"/></g>
<g><path style="opacity:1" fill="#f9f9f9" d="M 216.5,194.5 C 216.5,206.833 216.5,219.167 216.5,231.5C 203.5,231.5 190.5,231.5 177.5,231.5C 199.249,228.418 212.249,216.085 216.5,194.5 Z"/></g>
<g><path style="opacity:1" fill="#cccccc" d="M 123.5,206.5 C 124.043,206.56 124.376,206.893 124.5,207.5C 87.0022,208.83 49.6689,208.83 12.5,207.5C 49.6704,207.832 86.6704,207.498 123.5,206.5 Z"/></g>
</svg>
